<?xml version="1.0" encoding="UTF-8"?>
<svg version="1.1" xmlns="http://www.w3.org/2000/svg" width="1024" height="1024">
<path d="M0 0 C337.92 0 675.84 0 1024 0 C1024 337.92 1024 675.84 1024 1024 C686.08 1024 348.16 1024 0 1024 C0 686.08 0 348.16 0 0 Z " fill="#010000" transform="translate(0,0)"/>
<path d="M0 0 C0.91856277 -0.00131927 1.83712555 -0.00263855 2.78352356 -0.0039978 C5.88696441 -0.00594197 8.99031784 0.00053757 12.09375 0.0078125 C13.17860687 0.00869873 14.26346375 0.00958496 15.38119507 0.01049805 C54.78646932 0.04710533 94.19208881 0.64399276 133.59375 1.1328125 C131.92414745 4.47201759 128.09952795 5.13932561 124.78125 6.5078125 C102.5493685 16.04949811 82.89907868 30.75069038 63.59375 45.1328125 C62.6351709 45.84606689 62.6351709 45.84606689 61.65722656 46.57373047 C53.43923174 52.69529804 45.28495301 58.89611239 37.15844727 65.13842773 C31.87394503 69.18474032 26.52703714 73.13950711 21.15625 77.0703125 C14.88827561 81.65949014 8.70644641 86.33882972 2.59375 91.1328125 C-6.59526849 98.33314029 -15.97119125 105.25942293 -25.40625 112.1328125 C-26.18033203 112.69919434 -26.95441406 113.26557617 -27.75195312 113.84912109 C-43.46405046 125.34296224 -59.45609546 135.94084335 -76.2265625 145.83300781 C-77.98930928 146.88417984 -79.73233372 147.96838056 -81.46875 149.0625 C-116.45491424 170.82472716 -159.78608663 181.97243354 -200.40625 173.1328125 C-196.87251912 170.77699191 -193.17141559 169.47520245 -189.21875 168.0078125 C-180.29237236 164.6049442 -171.8307912 160.62470701 -163.40625 156.1328125 C-162.67905762 155.74722168 -161.95186523 155.36163086 -161.20263672 154.96435547 C-150.51297328 149.26182143 -140.36648336 143.02095508 -130.40625 136.1328125 C-129.09806973 135.23637548 -127.78946801 134.34055319 -126.48046875 133.4453125 C-123.12519594 131.14757319 -119.77746489 128.8390815 -116.43115234 126.52832031 C-114.4010034 125.12919668 -112.36716105 123.73561687 -110.33203125 122.34375 C-101.61315543 116.37765124 -92.97646952 110.31031998 -84.40625 104.1328125 C-83.35800049 103.37846924 -83.35800049 103.37846924 -82.28857422 102.60888672 C-74.44707174 96.96513401 -66.62156789 91.30155503 -58.84375 85.5703125 C-52.96442386 81.23933161 -47.0104516 77.02325907 -41.03198242 72.83056641 C-34.68996597 68.36710763 -28.45687619 63.76302471 -22.22729492 59.14453125 C-16.68325507 55.04485217 -11.08469562 51.06536759 -5.34765625 47.23828125 C-2.3473525 45.18225654 -2.3473525 45.18225654 0.31640625 42.62109375 C9.03547924 34.80949109 17.16106071 35.02382308 28.32324219 35.1640625 C31.14926714 35.12516667 33.8316893 34.71621806 36.59375 34.1328125 C11.52029883 31.85710218 -13.49953783 32.63771757 -38.40625 36.1328125 C-39.21610352 36.24496094 -40.02595703 36.35710937 -40.86035156 36.47265625 C-72.63387538 41.08700933 -106.83390449 56.86402371 -126.71484375 82.84277344 C-129.39272455 86.5318125 -131.92517216 90.30931573 -134.40625 94.1328125 C-135.73471765 90.14740955 -134.39137714 87.82242536 -132.84375 84.1328125 C-132.56563477 83.46000244 -132.28751953 82.78719238 -132.00097656 82.09399414 C-118.50800471 50.07296123 -92.3384712 25.22467628 -60.38085938 11.92529297 C-41.14305222 4.20448164 -20.75868205 -0.05010212 0 0 Z " fill="#ECB522" transform="translate(445.40625,300.8671875)"/>
<path d="M0 0 C1.09272217 0.32097656 1.09272217 0.32097656 2.20751953 0.6484375 C21.36117899 6.39586576 39.06197578 16.54687901 56 27 C56.92071289 27.5676709 57.84142578 28.1353418 58.79003906 28.72021484 C78.46962346 40.8861839 97.8332088 53.51924018 117.15039062 66.24951172 C139.18915719 80.76989425 160.80141504 94.57466227 186 103 C187.65902344 103.56460938 187.65902344 103.56460938 189.3515625 104.140625 C194.509618 105.35558454 199.661691 105.72546636 204.9375 106.125 C206.00291016 106.21136719 207.06832031 106.29773438 208.16601562 106.38671875 C210.77690827 106.59746345 213.38813684 106.80171135 216 107 C216 107.66 216 108.32 216 109 C195.86537354 118.31028743 195.86537354 118.31028743 185 121 C184.36392822 121.17515137 183.72785645 121.35030273 183.07250977 121.53076172 C174.98089159 123.4939051 166.79350547 123.37217733 158.5168457 123.37060547 C155.96691585 123.37494988 153.41876247 123.41127868 150.86914062 123.44921875 C134.67744652 123.5585764 118.64902807 120.6874216 104.19555664 113.07983398 C101.96414867 111.98236735 99.72046577 111.0964791 97.39453125 110.21875 C91.88763826 108.0328039 86.77438255 105.35791521 81.625 102.4375 C80.65183838 101.88666748 79.67867676 101.33583496 78.67602539 100.76831055 C61.81906986 91.03094757 45.8958905 79.62524932 30.12109375 68.2421875 C13.49502079 56.29804998 -3.46200448 44.54214503 -22.07470703 35.90136719 C-23.98955728 35.00488898 -25.8826836 34.0710737 -27.77734375 33.1328125 C-43.88963628 25.37717655 -61.35463598 22.74744186 -79 21 C-80.24910156 20.79890625 -81.49820312 20.5978125 -82.78515625 20.390625 C-86.01114821 19.76574459 -86.01114821 19.76574459 -89 21 C-90.39439664 21.06665376 -91.79169875 21.08538199 -93.1875 21.0625 C-95.0746875 21.0315625 -95.0746875 21.0315625 -97 21 C-88.45263661 11.88281239 -79.39044914 6.3576552 -67.89648438 1.77050781 C-66.0225826 1.00917491 -64.1792738 0.19464771 -62.33203125 -0.62890625 C-59.44922138 -1.81515041 -56.92776017 -2.5851228 -53.875 -3.125 C-52.66457031 -3.34542969 -52.66457031 -3.34542969 -51.4296875 -3.5703125 C-50.22699219 -3.78300781 -50.22699219 -3.78300781 -49 -4 C-48.22350098 -4.16822266 -47.44700195 -4.33644531 -46.64697266 -4.50976562 C-30.97429953 -7.41243373 -15.01583696 -4.54784559 0 0 Z " fill="#C1C1C2" transform="translate(558,373)"/>
<path d="M0 0 C3.11969537 1.60270064 6.23720799 3.20783205 9.34375 4.8359375 C10.45105469 5.41085937 11.55835938 5.98578125 12.69921875 6.578125 C30.76865517 16.110653 30.76865517 16.110653 32.34375 20.8359375 C27.59375 24.8359375 27.59375 24.8359375 25.34375 24.8359375 C25.01375 25.4959375 24.68375 26.1559375 24.34375 26.8359375 C23.35375 27.1659375 22.36375 27.4959375 21.34375 27.8359375 C20.60125 28.609375 20.60125 28.609375 19.84375 29.3984375 C18.34375 30.8359375 18.34375 30.8359375 15.34375 30.8359375 C15.01375 31.4959375 14.68375 32.1559375 14.34375 32.8359375 C12.69553756 33.86607027 11.02263441 34.85658826 9.34375 35.8359375 C7.99909305 36.7598139 6.65689974 37.68728045 5.31640625 38.6171875 C0.34879665 41.93694112 -4.81626092 44.55214292 -10.21875 47.0859375 C-11.20601074 47.55338379 -12.19327148 48.02083008 -13.21044922 48.50244141 C-23.38847186 53.26822632 -33.73248278 57.61494046 -44.15234375 61.82128906 C-46.2016943 62.65173962 -48.24273469 63.50267137 -50.28125 64.359375 C-59.77513376 68.24098893 -69.70311641 70.68672663 -79.6159668 73.25097656 C-81.69809373 73.7804478 -81.69809373 73.7804478 -83.65625 74.8359375 C-85.03261722 75.11013426 -86.41718934 75.34392829 -87.8046875 75.5546875 C-88.63871094 75.68190186 -89.47273438 75.80911621 -90.33203125 75.94018555 C-125.75431526 81.13370241 -160.27987248 80.64674891 -192.65625 63.8359375 C-192.65625 63.1759375 -192.65625 62.5159375 -192.65625 61.8359375 C-194.30625 61.1759375 -195.95625 60.5159375 -197.65625 59.8359375 C-197.65625 58.8459375 -197.65625 57.8559375 -197.65625 56.8359375 C-194.27134983 55.12582746 -190.87185594 53.44698598 -187.46875 51.7734375 C-186.50904297 51.28810547 -185.54933594 50.80277344 -184.56054688 50.30273438 C-183.62919922 49.84833984 -182.69785156 49.39394531 -181.73828125 48.92578125 C-180.88468018 48.50159912 -180.0310791 48.07741699 -179.15161133 47.64038086 C-176.18503454 46.68402918 -174.62072092 46.98224971 -171.65625 47.8359375 C-170.5425 48.1453125 -169.42875 48.4546875 -168.28125 48.7734375 C-165.86458333 49.48177083 -163.44791667 50.19010417 -161.03125 50.8984375 C-138.46383411 57.16716413 -114.19558466 51.35079619 -92.65625 43.8359375 C-92.00205078 43.61180176 -91.34785156 43.38766602 -90.67382812 43.15673828 C-80.21801803 39.54310831 -70.41835242 35.02225811 -60.65625 29.8359375 C-59.86138184 29.41650879 -59.06651367 28.99708008 -58.24755859 28.56494141 C-47.61828286 22.92967262 -37.39846103 16.95119943 -27.50341797 10.109375 C-24.15684853 7.80225021 -20.78169147 5.53800516 -17.40625 3.2734375 C-16.77356201 2.84345459 -16.14087402 2.41347168 -15.48901367 1.97045898 C-9.6272581 -1.97130118 -6.53449873 -2.86364797 0 0 Z " fill="#9E9E9F" transform="translate(534.65625,415.1640625)"/>
<path d="M0 0 C1.34762085 0.00561632 2.69524795 0.00987674 4.0428772 0.01286316 C7.53798246 0.02415228 11.03269546 0.05347521 14.52764893 0.0869751 C18.11473285 0.11802633 21.70188205 0.13144224 25.2890625 0.14648438 C32.28922002 0.17836587 39.28911525 0.22936084 46.2890625 0.29296875 C42.75425097 3.06498232 39.10352514 4.77129261 34.9765625 6.48046875 C12.58679683 16.07826244 -7.20308891 29.83562384 -26.7109375 44.29296875 C-27.75507812 45.06471436 -27.75507812 45.06471436 -28.8203125 45.85205078 C-36.42347291 51.48117635 -43.9351454 57.21486163 -51.35693359 63.08081055 C-61.644709 71.20464559 -72.10549898 79.10755183 -82.5859375 86.98046875 C-83.25802246 87.48570068 -83.93010742 87.99093262 -84.62255859 88.51147461 C-92.38662331 94.32801471 -92.38662331 94.32801471 -94.5612793 94.09301758 C-97.21917986 93.1038137 -99.61624422 91.85318546 -102.10546875 90.4921875 C-103.14380859 89.92693359 -104.18214844 89.36167969 -105.25195312 88.77929688 C-106.33154297 88.18568359 -107.41113281 87.59207031 -108.5234375 86.98046875 C-109.59142578 86.39845703 -110.65941406 85.81644531 -111.75976562 85.21679688 C-117.10870748 82.29588429 -122.43270267 79.33969854 -127.7109375 76.29296875 C-128.44183594 75.8753125 -129.17273438 75.45765625 -129.92578125 75.02734375 C-131.52083333 74.11588542 -133.11588542 73.20442708 -134.7109375 72.29296875 C-130.63738112 68.00332982 -126.20545078 64.39980068 -121.5234375 60.79296875 C-120.73461182 60.18275879 -119.94578613 59.57254883 -119.13305664 58.94384766 C-111.51541907 53.08459146 -103.75433979 47.43597614 -95.92236328 41.86767578 C-93.7307118 40.30704959 -91.54656721 38.73636345 -89.36328125 37.1640625 C-62.48551969 17.88571356 -34.17584102 -0.4192995 0 0 Z " fill="#EFB62F" transform="translate(716.7109375,302.70703125)"/>
<path d="M0 0 C7.5022587 5.94493063 11.01623182 13.04869547 14 22 C14.07973476 23.33525717 14.10771338 24.67412083 14.09765625 26.01171875 C14.09282227 27.14770508 14.09282227 27.14770508 14.08789062 28.30664062 C14.07532227 29.48516602 14.07532227 29.48516602 14.0625 30.6875 C14.05798828 31.48478516 14.05347656 32.28207031 14.04882812 33.10351562 C14.0370585 35.06904257 14.01912348 37.03453085 14 39 C7.02203832 39.91623395 0.21657061 40.13231811 -6.81640625 40.09765625 C-8.46200783 40.09553383 -8.46200783 40.09553383 -10.14085388 40.09336853 C-13.61476469 40.08781012 -17.08860896 40.07526546 -20.5625 40.0625 C-22.93033761 40.05747962 -25.29817623 40.05291766 -27.66601562 40.04882812 C-33.44403278 40.03785435 -39.22201164 40.02115811 -45 40 C-44.26765563 41.60919311 -43.51818287 43.21059726 -42.76171875 44.80859375 C-42.13849731 46.14748657 -42.13849731 46.14748657 -41.50268555 47.51342773 C-39.17734226 51.36129473 -35.97826744 53.11185982 -32 55 C-31.01 55.495 -31.01 55.495 -30 56 C-19.64145979 56.91841708 -11.24117587 55.5219283 -3 49 C0.68069887 50.53643852 2.98775204 52.78150945 5.75 55.625 C6.54921875 56.44226563 7.3484375 57.25953125 8.171875 58.1015625 C8.77515625 58.72804688 9.3784375 59.35453125 10 60 C7.59295579 66.29428227 0.51514702 69.34123386 -5.29296875 72.08203125 C-16.93837576 76.65459918 -31.69650428 76.8119812 -43.3515625 72.26171875 C-54.57573686 66.91450884 -61.30625148 59.47754355 -66 48 C-69.79874241 36.8202814 -68.67823928 25.7039326 -64 15 C-62.51567551 12.17650579 -60.86040634 9.587601 -59 7 C-58.443125 6.13375 -57.88625 5.2675 -57.3125 4.375 C-42.16986747 -11.17689287 -17.37135479 -12.00943842 0 0 Z " fill="#FAF9FA" transform="translate(304,553)"/>
<path d="M0 0 C8.68921017 5.70925668 15.16348311 12.64931183 18.08984375 22.8828125 C18.58231858 26.73407636 18.54225539 30.5363178 18.5 34.4140625 C18.49548828 35.20232422 18.49097656 35.99058594 18.48632812 36.80273438 C18.47461312 38.73571011 18.45667998 40.66864643 18.4375 42.6015625 C15.20524756 43.56359628 12.30046806 43.72280784 8.93457031 43.71508789 C7.83373108 43.71501236 6.73289185 43.71493683 5.59869385 43.71485901 C4.41628113 43.70969772 3.23386841 43.70453644 2.015625 43.69921875 C0.80050232 43.6978038 -0.41462036 43.69638885 -1.66656494 43.69493103 C-5.54856831 43.68933238 -9.43051406 43.6767801 -13.3125 43.6640625 C-15.94400958 43.65904733 -18.57552007 43.65448445 -21.20703125 43.65039062 C-27.65887383 43.63936339 -34.1106828 43.62262658 -40.5625 43.6015625 C-39.79514122 45.04361573 -39.02022413 46.48164845 -38.2421875 47.91796875 C-37.81147949 48.71920166 -37.38077148 49.52043457 -36.93701172 50.34594727 C-34.26448701 54.731641 -31.11043374 56.97643541 -26.3125 58.9140625 C-17.48373877 60.53266872 -10.58317559 59.80889935 -2.5625 55.6015625 C-1.88960937 55.04082031 -1.21671875 54.48007812 -0.5234375 53.90234375 C1.4375 52.6015625 1.4375 52.6015625 3.359375 52.59765625 C6.40573582 54.06930048 8.35089292 56.23522093 10.6875 58.6640625 C11.57953125 59.58316406 12.4715625 60.50226562 13.390625 61.44921875 C14.06609375 62.15949219 14.7415625 62.86976563 15.4375 63.6015625 C13.21457701 69.38116227 7.63243775 71.77107531 2.4375 74.6015625 C-0.51754907 75.83804073 -3.46261594 76.80357255 -6.5625 77.6015625 C-7.18116943 77.77284668 -7.79983887 77.94413086 -8.43725586 78.12060547 C-20.41543728 80.83134842 -33.19316818 78.75328911 -43.75 72.8515625 C-53.089419 66.85913403 -59.2126462 59.1374772 -62.2109375 48.24609375 C-64.03828164 34.50040505 -63.00145874 22.22173057 -54.5 10.921875 C-41.72499442 -4.37722442 -18.09044374 -9.41334137 0 0 Z " fill="#F9F9FA" transform="translate(590.5625,549.3984375)"/>
<path d="M0 0 C0.76417236 -0.01015137 1.52834473 -0.02030273 2.31567383 -0.03076172 C10.15353124 0.08975542 17.19214878 2.93054656 22.875 8.4375 C27.15056725 14.5974023 29.0045047 19.8292985 28.98852539 27.30761719 C28.98841209 29.07900055 28.98841209 29.07900055 28.98829651 30.88616943 C28.98313522 32.15607727 28.97797394 33.42598511 28.97265625 34.734375 C28.9712413 36.03828186 28.96982635 37.34218872 28.96836853 38.68560791 C28.96455867 42.14453055 28.95474151 45.60341091 28.94366455 49.06231689 C28.93341746 52.59492419 28.92886385 56.12753836 28.92382812 59.66015625 C28.91311782 66.58595658 28.89553346 73.5117219 28.875 80.4375 C21.285 80.4375 13.695 80.4375 5.875 80.4375 C5.84921875 76.89773438 5.8234375 73.35796875 5.796875 69.7109375 C5.75844178 66.27547314 5.71328544 62.8401582 5.66748047 59.40478516 C5.63928805 57.02074337 5.61806497 54.63660842 5.60400391 52.25244141 C5.58255131 48.82145548 5.53588636 45.39158776 5.484375 41.9609375 C5.48314636 40.89821625 5.48191772 39.835495 5.48065186 38.74057007 C5.36129427 32.68399572 4.96000705 29.02635575 0.875 24.4375 C-3.57447442 21.40376744 -7.83613098 20.56592608 -13.125 21.4375 C-18.52465589 23.08684944 -21.46337575 25.18239154 -24.25982666 30.22938538 C-25.97527966 34.60760265 -25.72886491 39.19508557 -25.734375 43.83984375 C-25.75091125 44.91754532 -25.76744751 45.99524689 -25.78448486 47.10560608 C-25.83285206 50.52879603 -25.85431155 53.95154204 -25.875 57.375 C-25.90316899 59.70379824 -25.93309771 62.0325759 -25.96484375 64.36132812 C-26.04190319 70.05358743 -26.08253046 75.74445834 -26.125 81.4375 C-33.715 81.4375 -41.305 81.4375 -49.125 81.4375 C-49.125 56.6875 -49.125 31.9375 -49.125 6.4375 C-50.775 6.4375 -52.425 6.4375 -54.125 6.4375 C-54.125 5.1175 -54.125 3.7975 -54.125 2.4375 C-50.55149959 1.61851378 -47.26840521 1.31938042 -43.60546875 1.33984375 C-42.58388672 1.34306641 -41.56230469 1.34628906 -40.50976562 1.34960938 C-39.45466797 1.35798828 -38.39957031 1.36636719 -37.3125 1.375 C-36.23806641 1.37951172 -35.16363281 1.38402344 -34.05664062 1.38867188 C-31.41270317 1.40042271 -28.76888048 1.41685213 -26.125 1.4375 C-25.795 4.4075 -25.465 7.3775 -25.125 10.4375 C-24.155625 9.53 -23.18625 8.6225 -22.1875 7.6875 C-15.08206897 1.76162669 -9.16678938 0.08724088 0 0 Z " fill="#F8F8F8" transform="translate(480.125,545.5625)"/>
<path d="M0 0 C21.31078315 -2.05801277 21.31078315 -2.05801277 27.08496094 1.16308594 C30.73005798 4.49293135 32.8148504 8.62970081 35 13 C36.01170721 14.45874063 37.04684683 15.9021591 38.125 17.3125 C39.053125 18.6428125 39.053125 18.6428125 40 20 C43.44091278 18.85302907 43.89285166 18.11930304 45.8828125 15.21875 C46.41003906 14.45949219 46.93726563 13.70023438 47.48046875 12.91796875 C48.29451172 11.72107422 48.29451172 11.72107422 49.125 10.5 C50.21032471 8.92666044 51.29623153 7.35372222 52.3828125 5.78125 C52.86121582 5.08064453 53.33961914 4.38003906 53.83251953 3.65820312 C55 2 55 2 56 1 C57.92667507 0.91251793 59.85651861 0.89302666 61.78515625 0.90234375 C62.95498047 0.90556641 64.12480469 0.90878906 65.33007812 0.91210938 C66.56177734 0.92048828 67.79347656 0.92886719 69.0625 0.9375 C70.91584961 0.94426758 70.91584961 0.94426758 72.80664062 0.95117188 C75.87114117 0.96300392 78.93554721 0.97948827 82 1 C78.75057055 5.99122223 75.4844023 10.82693111 71.625 15.375 C67.78983972 19.98107932 64.21448032 24.71680631 60.7265625 29.58984375 C59 32 59 32 57.2109375 34.00390625 C55.75103659 35.95526852 55.75103659 35.95526852 56.25537109 38.38769531 C57.03625828 41.12720117 57.9194823 42.59858092 59.703125 44.79296875 C60.26563965 45.49744141 60.8281543 46.20191406 61.40771484 46.92773438 C62.01566895 47.67345703 62.62362305 48.41917969 63.25 49.1875 C64.52076277 50.78314178 65.78891981 52.38086165 67.0546875 53.98046875 C67.7053418 54.80208496 68.35599609 55.62370117 69.02636719 56.47021484 C72.23346305 60.58104208 75.31542742 64.77873256 78.375 69 C78.93993164 69.77110107 79.50486328 70.54220215 80.08691406 71.33666992 C80.85986816 72.40751831 80.85986816 72.40751831 81.6484375 73.5 C82.33172119 74.44359375 82.33172119 74.44359375 83.02880859 75.40625 C84 77 84 77 84 79 C62.79598458 81.04770206 62.79598458 81.04770206 56.96337891 77.90136719 C53.8030167 75.06264782 51.85329088 71.55827824 49.95751953 67.796875 C48.39291519 64.86074854 46.38561213 62.33612798 44.375 59.6875 C43.24812344 58.12635283 42.12235555 56.56440061 41 55 C37.35960666 59.50330139 33.83325358 64.09063569 30.3125 68.6875 C29.71888672 69.45900391 29.12527344 70.23050781 28.51367188 71.02539062 C27.66579102 72.13237305 27.66579102 72.13237305 26.80078125 73.26171875 C26.02988159 74.26658325 26.02988159 74.26658325 25.2434082 75.29174805 C23.93816451 76.98634363 23.93816451 76.98634363 23 79 C14.42 79 5.84 79 -3 79 C1.80675509 71.16289932 7.05852477 63.87305399 12.71826172 56.64941406 C14.82548894 53.93771366 16.88229079 51.18871847 18.9375 48.4375 C19.64777344 47.48746094 20.35804688 46.53742187 21.08984375 45.55859375 C22.03537109 44.29208984 22.03537109 44.29208984 23 43 C23.62003906 42.33097656 24.24007813 41.66195312 24.87890625 40.97265625 C26.26981175 39.03089586 26.26981175 39.03089586 25.5234375 36.70703125 C23.50726294 33.12444415 21.13446115 29.93770571 18.625 26.6875 C18.10131836 25.99833496 17.57763672 25.30916992 17.03808594 24.59912109 C15.36364251 22.39561736 13.6822881 20.19751879 12 18 C9.74351834 15.04653314 7.49484572 12.08731602 5.25 9.125 C4.72486816 8.44139404 4.19973633 7.75778809 3.65869141 7.0534668 C0 2.22573696 0 2.22573696 0 0 Z " fill="#FAFAFA" transform="translate(330,547)"/>
<path d="M0 0 C-0.57823096 4.06225548 -1.89117737 6.84762346 -4.0625 10.3125 C-4.61035156 11.19550781 -5.15820312 12.07851563 -5.72265625 12.98828125 C-6.14417969 13.65214844 -6.56570313 14.31601562 -7 15 C-10.61495307 14.37695602 -13.78833042 13.36569295 -17.1875 12 C-23.40371817 9.7014254 -29.54861288 8.01388939 -36.0625 9.875 C-37.93979538 10.85431715 -37.93979538 10.85431715 -39 12 C-39.04063832 13.66617115 -39.042721 15.33388095 -39 17 C-33.8902577 19.87423004 -28.80151594 21.72908157 -23.1875 23.375 C-13.50965831 26.28844527 -4.98621813 29.48804442 0.9765625 38.0703125 C3.76826047 43.33404837 3.69013178 49.06901863 2.3515625 54.75390625 C-0.07917398 62.38891186 -3.23379768 66.42591861 -10.2421875 70.2109375 C-21.64504925 75.62441732 -35.92308889 75.5955486 -47.96484375 72.1171875 C-63.62078908 66.35451007 -63.62078908 66.35451007 -66.09375 62.1328125 C-65.95217886 58.91206909 -64.55010336 56.99593282 -62.8125 54.3125 C-62.20019531 53.33925781 -61.58789062 52.36601563 -60.95703125 51.36328125 C-59 49 -59 49 -57.19921875 47.95703125 C-53.70973331 48.02520947 -50.99085269 49.73566233 -48 51.375 C-40.37749524 55.45734564 -34.68378003 56.69367474 -26 56 C-22.79419292 55.13539818 -22.79419292 55.13539818 -21 53 C-20.84884325 49.92176342 -20.84884325 49.92176342 -21 47 C-23.24817218 46.07861796 -25.49793328 45.16178988 -27.75 44.25 C-28.4308667 43.97414063 -29.1117334 43.69828125 -29.81323242 43.4140625 C-33.93709788 41.763938 -38.06423649 40.307158 -42.3125 39 C-50.1204696 36.41137396 -56.99087668 33.65671439 -61.125 26.1875 C-63.81123485 19.83388779 -63.95577084 14.3414233 -61.8125 7.8125 C-57.94253826 -1.07082128 -51.77511936 -4.4176042 -43 -8 C-28.4000559 -11.75106256 -12.43019189 -7.98529999 0 0 Z " fill="#F9F9FA" transform="translate(776,554)"/>
<path d="M0 0 C0.495 0.99 0.495 0.99 1 2 C-0.24493748 4.28974316 -1.52641528 6.44190034 -2.9375 8.625 C-3.32357422 9.23601563 -3.70964844 9.84703125 -4.10742188 10.4765625 C-5.06446326 11.9889242 -6.03132811 13.49506117 -7 15 C-10.58383952 14.38452845 -13.71348105 13.40793378 -17.0625 12 C-22.72460854 9.62697454 -27.77982442 8.26096924 -34 9 C-36.9254644 10.3509288 -36.9254644 10.3509288 -39 12 C-38.67 13.98 -38.34 15.96 -38 18 C-36.52129867 18.5429357 -35.04198634 19.08420707 -33.5625 19.625 C-32.56992187 19.98851562 -31.57734375 20.35203125 -30.5546875 20.7265625 C-27.94102762 21.66288461 -25.32519306 22.57269969 -22.6953125 23.4609375 C-21.95079834 23.71536621 -21.20628418 23.96979492 -20.43920898 24.23193359 C-18.96713575 24.73406331 -17.49274924 25.22947473 -16.01586914 25.71728516 C-9.92482494 27.808357 -4.83177168 30.5535732 -0.6875 35.625 C-0.19636719 36.21539063 0.29476562 36.80578125 0.80078125 37.4140625 C4.67768979 42.54117934 3.54991643 49.88771046 3 56 C1.8838524 59.27837075 0.35693632 61.48713405 -2 64 C-2.49628906 64.55042969 -2.99257813 65.10085938 -3.50390625 65.66796875 C-10.79952536 72.78778981 -19.59388101 74.37771313 -29.4375 74.4375 C-43.59350586 74.21459244 -53.90804884 69.95452382 -66 63 C-65.37695259 58.92546771 -63.23467379 56.10460299 -60.9375 52.75 C-60.20402344 51.67234375 -59.47054687 50.5946875 -58.71484375 49.484375 C-58.14894531 48.66453125 -57.58304688 47.8446875 -57 47 C-54.87053461 48.05982609 -52.74763891 49.12992848 -50.6328125 50.21875 C-41.88599853 54.68752723 -34.96661492 56.94391339 -25 56 C-22.69281779 55.30140487 -22.69281779 55.30140487 -21 54 C-20.18415432 50.94091587 -20.18415432 50.94091587 -20 48 C-25.05020526 44.57889321 -30.57135567 42.91393589 -36.41796875 41.35546875 C-46.65546306 38.57230257 -55.59600368 34.50079938 -61.10546875 25.1171875 C-63.36843435 19.76117284 -62.48216733 12.44127814 -60.87109375 6.94140625 C-57.3636395 -0.87565546 -50.72601537 -4.98465397 -43 -8 C-28.76677287 -12.77482192 -12.19930256 -7.32366157 0 0 Z " fill="#F9F9FA" transform="translate(691,554)"/>
<path d="M0 0 C4.51923077 4.03846154 4.51923077 4.03846154 6 7 C6 8.98 6 10.96 6 13 C-6.21 13 -18.42 13 -31 13 C-29.81659389 4.71615721 -29.81659389 4.71615721 -26 1 C-17.29284048 -5.01401483 -8.99435566 -5.86424446 0 0 Z " fill="#060605" transform="translate(290,566)"/>
<path d="M0 0 C1.18464844 -0.00773438 2.36929688 -0.01546875 3.58984375 -0.0234375 C8.90105307 0.5859476 12.08338431 2.41764243 15.875 6.125 C18.0625 9.375 18.0625 9.375 19.0625 16.375 C6.8525 16.375 -5.3575 16.375 -17.9375 16.375 C-16.94370508 9.41843558 -16.59613771 8.03363771 -11.9375 3.375 C-7.90781375 0.40723805 -4.96889355 -0.03237064 0 0 Z " fill="#050404" transform="translate(568.9375,562.625)"/>
<path d="M0 0 C-1.79036458 0.9765625 -3.58072917 1.953125 -5.37109375 2.9296875 C-7.16618315 3.91410024 -7.16618315 3.91410024 -8 6 C10.18381082 6.33815021 27.520586 6.47853367 45.25390625 1.90625 C48.68254696 1.07679782 51.49596006 0.824798 55 1 C37.61280502 12.59146332 5.74034167 10.89823323 -13.97412109 7.06787109 C-15.65199951 6.72430745 -17.32647671 6.36418641 -19 6 C-15.78117751 3.85411834 -12.54876914 2.60197657 -8.9375 1.3125 C-8.30005859 1.07466797 -7.66261719 0.83683594 -7.00585938 0.59179688 C-2.24081277 -1.12040638 -2.24081277 -1.12040638 0 0 Z " fill="#AA7903" transform="translate(264,468)"/>
<path d="M0 0 C-1.79036458 0.9765625 -3.58072917 1.953125 -5.37109375 2.9296875 C-7.16618315 3.91410024 -7.16618315 3.91410024 -8 6 C0.25 6.33 8.5 6.66 17 7 C17 7.33 17 7.66 17 8 C13.0625648 8.05893685 9.12524573 8.09390669 5.1875 8.125 C3.53717773 8.15013672 3.53717773 8.15013672 1.85351562 8.17578125 C-5.32536862 8.21813455 -11.99126695 7.56258545 -19 6 C-15.78117751 3.85411834 -12.54876914 2.60197657 -8.9375 1.3125 C-8.30005859 1.07466797 -7.66261719 0.83683594 -7.00585938 0.59179688 C-2.24081277 -1.12040638 -2.24081277 -1.12040638 0 0 Z " fill="#C98C01" transform="translate(264,468)"/>
<path d="M0 0 C0.33 0.66 0.66 1.32 1 2 C0.37915039 3.69580078 0.37915039 3.69580078 -0.65234375 5.6953125 C-1.01650391 6.41074219 -1.38066406 7.12617188 -1.75585938 7.86328125 C-2.14580078 8.60964844 -2.53574219 9.35601562 -2.9375 10.125 C-3.32357422 10.87910156 -3.70964844 11.63320313 -4.10742188 12.41015625 C-5.06452132 14.27709097 -6.03136106 16.13902628 -7 18 C-6.34 18.66 -5.68 19.32 -5 20 C-7.31 23.3 -9.62 26.6 -12 30 C-13.3287434 26.01376979 -11.98392699 23.69064021 -10.4375 20 C-10.16591064 19.33661621 -9.89432129 18.67323242 -9.61450195 17.98974609 C-3.58910905 3.58910905 -3.58910905 3.58910905 0 0 Z " fill="#C68803" transform="translate(323,365)"/>
<path d="M0 0 C10.71092709 -0.15498126 21.31485445 0.32157806 32 1 C32 1.33 32 1.66 32 2 C16.16 2.495 16.16 2.495 0 3 C0 2.01 0 1.02 0 0 Z " fill="#141707" transform="translate(468,334)"/>
<path d="M0 0 C0.66 0.33 1.32 0.66 2 1 C1.60208252 1.42297363 1.20416504 1.84594727 0.79418945 2.28173828 C-1.03478407 4.22786175 -2.86115379 6.17641084 -4.6875 8.125 C-5.31333984 8.79015625 -5.93917969 9.4553125 -6.58398438 10.140625 C-10.19236139 13.99459836 -13.66534417 17.90659839 -17 22 C-17 14.98568598 -8.18837448 8.07187336 -3.4375 3.3125 C-2.29685035 2.20297919 -1.15311553 1.09655945 0 0 Z " fill="#B67E01" transform="translate(346,337)"/>
<path d="M0 0 C0 0.33 0 0.66 0 1 C-1.134375 1.12375 -2.26875 1.2475 -3.4375 1.375 C-5.2009375 1.684375 -5.2009375 1.684375 -7 2 C-7.33 2.66 -7.66 3.32 -8 4 C-10.75412086 5.04044566 -13.41827946 5.88994476 -16.3125 6.4375 C-16.869375 6.623125 -17.42625 6.80875 -18 7 C-18.33 7.99 -18.66 8.98 -19 10 C-21.31 10 -23.62 10 -26 10 C-22.80477867 6.80477867 -18.72980822 5.25701555 -14.6875 3.3125 C-13.83220703 2.88388672 -12.97691406 2.45527344 -12.09570312 2.01367188 C-11.26361328 1.61341797 -10.43152344 1.21316406 -9.57421875 0.80078125 C-8.81713623 0.43122314 -8.06005371 0.06166504 -7.2800293 -0.3190918 C-4.50997696 -1.14634054 -2.75431801 -0.76200065 0 0 Z " fill="#787778" transform="translate(363,463)"/>
<path d="M0 0 C5.61 0.33 11.22 0.66 17 1 C17 1.66 17 2.32 17 3 C13.04 4.65 9.08 6.3 5 8 C5 7.34 5 6.68 5 6 C6.32 5.67 7.64 5.34 9 5 C9 4.34 9 3.68 9 3 C8.2575 3.061875 7.515 3.12375 6.75 3.1875 C4 3 4 3 0 0 Z " fill="#787879" transform="translate(757,479)"/>
<path d="M0 0 C1.65 0 3.3 0 5 0 C5 0.66 5 1.32 5 2 C3.42032193 2.67528223 1.83608097 3.33989694 0.25 4 C-1.07257812 4.556875 -1.07257812 4.556875 -2.421875 5.125 C-5 6 -5 6 -9 6 C-9 5.34 -9 4.68 -9 4 C-6.03 3.34 -3.06 2.68 0 2 C0 1.34 0 0.68 0 0 Z " fill="#F2C741" transform="translate(754,304)"/>
<path d="M0 0 C4.62 0 9.24 0 14 0 C14 0.33 14 0.66 14 1 C12.02 1.33 10.04 1.66 8 2 C8 2.33 8 2.66 8 3 C5.36 3 2.72 3 0 3 C0 2.01 0 1.02 0 0 Z " fill="#2A230B" transform="translate(468,334)"/>
<path d="M0 0 C0.66 0.66 1.32 1.32 2 2 C-1.63 4.31 -5.26 6.62 -9 9 C-9.33 8.34 -9.66 7.68 -10 7 C-9.36191406 6.57847656 -8.72382813 6.15695312 -8.06640625 5.72265625 C-7.24011719 5.17480469 -6.41382813 4.62695312 -5.5625 4.0625 C-4.73878906 3.51722656 -3.91507812 2.97195313 -3.06640625 2.41015625 C-1.10014075 1.16197019 -1.10014075 1.16197019 0 0 Z " fill="#E9BF43" transform="translate(386,433)"/>
<path d="M0 0 C0.66 0.33 1.32 0.66 2 1 C-1.62558512 5.00722566 -5.98875364 7.13867992 -11 9 C-7.56638098 5.36440339 -4.2026393 2.63886654 0 0 Z " fill="#E5C451" transform="translate(400,377)"/>
<path d="M0 0 C0 0.66 0 1.32 0 2 C-3.3 1.67 -6.6 1.34 -10 1 C-6.1496895 -1.56687367 -4.41430237 -0.83288724 0 0 Z " fill="#D49E06" transform="translate(255,473)"/>
<path d="M0 0 C0.33 0.66 0.66 1.32 1 2 C0.34 2 -0.32 2 -1 2 C-1.33 2.99 -1.66 3.98 -2 5 C-4.31 5 -6.62 5 -9 5 C-6.3534665 2.3534665 -3.43778736 1.40058003 0 0 Z " fill="#565557" transform="translate(346,468)"/>
<path d="M0 0 C0 0.66 0 1.32 0 2 C-3.38018531 3.04005702 -6.4780279 3.08004482 -10 3 C-6.26223701 0.50815801 -4.5227786 0 0 0 Z " fill="#D8B43A" transform="translate(692,306)"/>
<path d="M0 0 C0.66 0 1.32 0 2 0 C1.50351065 4.46840411 1.31012244 5.68987756 -2 9 C-1.34 6.03 -0.68 3.06 0 0 Z " fill="#B98607" transform="translate(312,386)"/>
<path d="M0 0 C0.66 0.33 1.32 0.66 2 1 C-0.52788007 3.79872437 -2.20411134 5.45773019 -6 6 C-5 3 -5 3 -2.5625 1.25 C-1.716875 0.8375 -0.87125 0.425 0 0 Z " fill="#E6C046" transform="translate(651,324)"/>
</svg>
